<svg xmlns="http://www.w3.org/2000/svg" xmlns:xlink="http://www.w3.org/1999/xlink" viewBox="0,0,256,256" width="50px" height="50px" fill-rule="nonzero"><g fill="#fcc419" fill-rule="nonzero" stroke="none" stroke-width="1" stroke-linecap="butt" stroke-linejoin="miter" stroke-miterlimit="10" stroke-dasharray="" stroke-dashoffset="0" font-family="none" font-weight="none" font-size="none" text-anchor="none" style="mix-blend-mode: normal"><g transform="scale(5.12,5.12)"><path d="M45.5,12.654l-20.5,-11.835c-0.309,-0.179 -0.691,-0.179 -1,0l-20.5,11.835c-0.31,0.179 -0.5,0.509 -0.5,0.867v23.672c0,0.357 0.19,0.688 0.5,0.866l20.5,11.835c0.154,0.089 0.327,0.134 0.5,0.134c0.173,0 0.346,-0.045 0.5,-0.134l20.5,-11.835c0.31,-0.179 0.5,-0.509 0.5,-0.866v-23.672c0,-0.358 -0.19,-0.688 -0.5,-0.867zM18,36l-4,2l-4,-2.192v-20.01l3,-1.798l5,2.787zM29,30l-4.486,2.528l-0.013,0.008l-0.013,-0.008l-4.488,-2.528v-12l4.501,2.319l4.499,-2.319zM39,35.808l-4,2.192l-4,-2v-19.213l5,-2.787l3,1.798z"></path></g></g></svg>